<svg id="Layer_1" data-name="Layer 1" xmlns="http://www.w3.org/2000/svg" viewBox="0 0 141.52 141.52"><title>radar-deco</title><path d="M70.76.5A70.26,70.26,0,1,1,.5,70.76,70.34,70.34,0,0,1,70.76.5m0-.5a70.76,70.76,0,1,0,70.76,70.76A70.76,70.76,0,0,0,70.76,0Z" style="fill:#f49c0f"/><path d="M129,30.62a70.79,70.79,0,0,1-1.46,82.32" style="fill:none;stroke:#f49c0f;stroke-linecap:round;stroke-miterlimit:10;stroke-width:4px;opacity:0.5"/><circle cx="35.09" cy="10.22" r="2.69" style="fill:#f49c0f"/><circle cx="89.53" cy="124.48" r="1.9" style="fill:#fff"/><g style="opacity:0.30000000000000004"><line x1="135.7" y1="72.61" x2="132.46" y2="72.52" style="fill:none;stroke:#fff;stroke-miterlimit:10;stroke-width:0.27px"/><line x1="135.6" y1="74.63" x2="132.36" y2="74.44" style="fill:none;stroke:#fff;stroke-miterlimit:10;stroke-width:0.27px"/><line x1="135.5" y1="76.65" x2="132.27" y2="76.36" style="fill:none;stroke:#fff;stroke-miterlimit:10;stroke-width:0.27px"/><line x1="135.27" y1="78.65" x2="132.05" y2="78.26" style="fill:none;stroke:#fff;stroke-miterlimit:10;stroke-width:0.27px"/><line x1="134.96" y1="80.65" x2="131.76" y2="80.16" style="fill:none;stroke:#fff;stroke-miterlimit:10;stroke-width:0.27px"/><line x1="134.66" y1="82.65" x2="131.47" y2="82.06" style="fill:none;stroke:#fff;stroke-miterlimit:10;stroke-width:0.27px"/><line x1="134.27" y1="84.64" x2="131.11" y2="83.95" style="fill:none;stroke:#fff;stroke-miterlimit:10;stroke-width:0.27px"/><line x1="133.77" y1="86.6" x2="130.63" y2="85.81" style="fill:none;stroke:#fff;stroke-miterlimit:10;stroke-width:0.27px"/><line x1="133.27" y1="88.55" x2="130.15" y2="87.67" style="fill:none;stroke:#fff;stroke-miterlimit:10;stroke-width:0.27px"/><line x1="132.72" y1="90.5" x2="129.63" y2="89.52" style="fill:none;stroke:#fff;stroke-miterlimit:10;stroke-width:0.27px"/><line x1="132.03" y1="92.4" x2="128.97" y2="91.32" style="fill:none;stroke:#fff;stroke-miterlimit:10;stroke-width:0.27px"/><line x1="131.33" y1="94.3" x2="128.31" y2="93.13" style="fill:none;stroke:#fff;stroke-miterlimit:10;stroke-width:0.27px"/><line x1="130.62" y1="96.19" x2="127.64" y2="94.93" style="fill:none;stroke:#fff;stroke-miterlimit:10;stroke-width:0.27px"/><line x1="129.75" y1="98.02" x2="126.81" y2="96.66" style="fill:none;stroke:#fff;stroke-miterlimit:10;stroke-width:0.27px"/><line x1="128.87" y1="99.84" x2="125.97" y2="98.39" style="fill:none;stroke:#fff;stroke-miterlimit:10;stroke-width:0.27px"/><line x1="127.99" y1="101.66" x2="125.14" y2="100.12" style="fill:none;stroke:#fff;stroke-miterlimit:10;stroke-width:0.27px"/><line x1="126.95" y1="103.39" x2="124.15" y2="101.76" style="fill:none;stroke:#fff;stroke-miterlimit:10;stroke-width:0.27px"/><line x1="125.9" y1="105.12" x2="123.15" y2="103.41" style="fill:none;stroke:#fff;stroke-miterlimit:10;stroke-width:0.27px"/><line x1="124.85" y1="106.85" x2="122.16" y2="105.05" style="fill:none;stroke:#fff;stroke-miterlimit:10;stroke-width:0.27px"/><line x1="123.66" y1="108.49" x2="121.03" y2="106.6" style="fill:none;stroke:#fff;stroke-miterlimit:10;stroke-width:0.27px"/><line x1="122.45" y1="110.11" x2="119.88" y2="108.14" style="fill:none;stroke:#fff;stroke-miterlimit:10;stroke-width:0.27px"/><line x1="121.24" y1="111.73" x2="118.73" y2="109.68" style="fill:none;stroke:#fff;stroke-miterlimit:10;stroke-width:0.27px"/><line x1="119.92" y1="113.25" x2="117.47" y2="111.13" style="fill:none;stroke:#fff;stroke-miterlimit:10;stroke-width:0.27px"/><line x1="118.56" y1="114.75" x2="116.18" y2="112.56" style="fill:none;stroke:#fff;stroke-miterlimit:10;stroke-width:0.27px"/><line x1="117.2" y1="116.25" x2="114.88" y2="113.98" style="fill:none;stroke:#fff;stroke-miterlimit:10;stroke-width:0.27px"/><line x1="115.75" y1="117.65" x2="113.5" y2="115.31" style="fill:none;stroke:#fff;stroke-miterlimit:10;stroke-width:0.27px"/><line x1="114.25" y1="119.01" x2="112.08" y2="116.61" style="fill:none;stroke:#fff;stroke-miterlimit:10;stroke-width:0.27px"/><line x1="112.75" y1="120.37" x2="110.66" y2="117.9" style="fill:none;stroke:#fff;stroke-miterlimit:10;stroke-width:0.27px"/><line x1="111.19" y1="121.64" x2="109.17" y2="119.11" style="fill:none;stroke:#fff;stroke-miterlimit:10;stroke-width:0.27px"/><line x1="109.57" y1="122.86" x2="107.63" y2="120.26" style="fill:none;stroke:#fff;stroke-miterlimit:10;stroke-width:0.27px"/><line x1="107.95" y1="124.07" x2="106.09" y2="121.41" style="fill:none;stroke:#fff;stroke-miterlimit:10;stroke-width:0.27px"/><line x1="106.27" y1="125.2" x2="104.5" y2="122.49" style="fill:none;stroke:#fff;stroke-miterlimit:10;stroke-width:0.27px"/><line x1="104.55" y1="126.25" x2="102.86" y2="123.48" style="fill:none;stroke:#fff;stroke-miterlimit:10;stroke-width:0.27px"/><line x1="102.82" y1="127.3" x2="101.22" y2="124.48" style="fill:none;stroke:#fff;stroke-miterlimit:10;stroke-width:0.27px"/><line x1="101.05" y1="128.28" x2="99.54" y2="125.42" style="fill:none;stroke:#fff;stroke-miterlimit:10;stroke-width:0.27px"/><line x1="99.23" y1="129.16" x2="97.81" y2="126.25" style="fill:none;stroke:#fff;stroke-miterlimit:10;stroke-width:0.27px"/><line x1="97.41" y1="130.04" x2="96.08" y2="127.08" style="fill:none;stroke:#fff;stroke-miterlimit:10;stroke-width:0.27px"/><line x1="95.57" y1="130.87" x2="94.33" y2="127.87" style="fill:none;stroke:#fff;stroke-miterlimit:10;stroke-width:0.27px"/><line x1="93.67" y1="131.56" x2="92.52" y2="128.53" style="fill:none;stroke:#fff;stroke-miterlimit:10;stroke-width:0.27px"/><line x1="91.77" y1="132.26" x2="90.72" y2="129.19" style="fill:none;stroke:#fff;stroke-miterlimit:10;stroke-width:0.27px"/><line x1="89.86" y1="132.93" x2="88.91" y2="129.83" style="fill:none;stroke:#fff;stroke-miterlimit:10;stroke-width:0.27px"/><line x1="87.9" y1="133.43" x2="87.05" y2="130.31" style="fill:none;stroke:#fff;stroke-miterlimit:10;stroke-width:0.27px"/><line x1="85.94" y1="133.94" x2="85.19" y2="130.79" style="fill:none;stroke:#fff;stroke-miterlimit:10;stroke-width:0.27px"/><line x1="83.98" y1="134.44" x2="83.33" y2="131.27" style="fill:none;stroke:#fff;stroke-miterlimit:10;stroke-width:0.27px"/><line x1="81.99" y1="134.76" x2="81.43" y2="131.57" style="fill:none;stroke:#fff;stroke-miterlimit:10;stroke-width:0.27px"/><line x1="79.99" y1="135.06" x2="79.53" y2="131.86" style="fill:none;stroke:#fff;stroke-miterlimit:10;stroke-width:0.27px"/><line x1="77.99" y1="135.37" x2="77.63" y2="132.15" style="fill:none;stroke:#fff;stroke-miterlimit:10;stroke-width:0.27px"/><line x1="75.97" y1="135.53" x2="75.72" y2="132.3" style="fill:none;stroke:#fff;stroke-miterlimit:10;stroke-width:0.27px"/><line x1="73.96" y1="135.63" x2="73.8" y2="132.4" style="fill:none;stroke:#fff;stroke-miterlimit:10;stroke-width:0.27px"/><line x1="71.94" y1="135.73" x2="71.88" y2="132.5" style="fill:none;stroke:#fff;stroke-miterlimit:10;stroke-width:0.27px"/><line x1="69.92" y1="135.75" x2="69.96" y2="132.51" style="fill:none;stroke:#fff;stroke-miterlimit:10;stroke-width:0.27px"/><line x1="67.9" y1="135.65" x2="68.04" y2="132.41" style="fill:none;stroke:#fff;stroke-miterlimit:10;stroke-width:0.27px"/><line x1="65.88" y1="135.55" x2="66.12" y2="132.32" style="fill:none;stroke:#fff;stroke-miterlimit:10;stroke-width:0.27px"/><line x1="63.86" y1="135.42" x2="64.2" y2="132.2" style="fill:none;stroke:#fff;stroke-miterlimit:10;stroke-width:0.27px"/><line x1="61.86" y1="135.11" x2="62.3" y2="131.91" style="fill:none;stroke:#fff;stroke-miterlimit:10;stroke-width:0.27px"/><line x1="59.86" y1="134.81" x2="60.4" y2="131.62" style="fill:none;stroke:#fff;stroke-miterlimit:10;stroke-width:0.27px"/><line x1="57.86" y1="134.5" x2="58.5" y2="131.33" style="fill:none;stroke:#fff;stroke-miterlimit:10;stroke-width:0.27px"/><line x1="55.9" y1="134.02" x2="56.64" y2="130.87" style="fill:none;stroke:#fff;stroke-miterlimit:10;stroke-width:0.27px"/><line x1="53.94" y1="133.52" x2="54.78" y2="130.39" style="fill:none;stroke:#fff;stroke-miterlimit:10;stroke-width:0.27px"/><line x1="51.98" y1="133.01" x2="52.92" y2="129.91" style="fill:none;stroke:#fff;stroke-miterlimit:10;stroke-width:0.27px"/><line x1="50.07" y1="132.37" x2="51.1" y2="129.3" style="fill:none;stroke:#fff;stroke-miterlimit:10;stroke-width:0.27px"/><line x1="48.17" y1="131.68" x2="49.29" y2="128.64" style="fill:none;stroke:#fff;stroke-miterlimit:10;stroke-width:0.27px"/><line x1="46.27" y1="130.98" x2="47.49" y2="127.98" style="fill:none;stroke:#fff;stroke-miterlimit:10;stroke-width:0.27px"/><line x1="44.41" y1="130.18" x2="45.73" y2="127.22" style="fill:none;stroke:#fff;stroke-miterlimit:10;stroke-width:0.27px"/><line x1="42.59" y1="129.31" x2="43.99" y2="126.39" style="fill:none;stroke:#fff;stroke-miterlimit:10;stroke-width:0.27px"/><line x1="40.77" y1="128.43" x2="42.26" y2="125.56" style="fill:none;stroke:#fff;stroke-miterlimit:10;stroke-width:0.27px"/><line x1="38.99" y1="127.47" x2="40.57" y2="124.65" style="fill:none;stroke:#fff;stroke-miterlimit:10;stroke-width:0.27px"/><line x1="37.26" y1="126.43" x2="38.93" y2="123.65" style="fill:none;stroke:#fff;stroke-miterlimit:10;stroke-width:0.27px"/><line x1="35.53" y1="125.37" x2="37.29" y2="122.65" style="fill:none;stroke:#fff;stroke-miterlimit:10;stroke-width:0.27px"/><line x1="33.84" y1="124.27" x2="35.68" y2="121.6" style="fill:none;stroke:#fff;stroke-miterlimit:10;stroke-width:0.27px"/><line x1="32.22" y1="123.06" x2="34.14" y2="120.45" style="fill:none;stroke:#fff;stroke-miterlimit:10;stroke-width:0.27px"/><line x1="30.6" y1="121.85" x2="32.6" y2="119.3" style="fill:none;stroke:#fff;stroke-miterlimit:10;stroke-width:0.27px"/><line x1="29.01" y1="120.6" x2="31.09" y2="118.12" style="fill:none;stroke:#fff;stroke-miterlimit:10;stroke-width:0.27px"/><line x1="27.51" y1="119.24" x2="29.67" y2="116.82" style="fill:none;stroke:#fff;stroke-miterlimit:10;stroke-width:0.27px"/><line x1="26.02" y1="117.88" x2="28.25" y2="115.53" style="fill:none;stroke:#fff;stroke-miterlimit:10;stroke-width:0.27px"/><line x1="24.55" y1="116.5" x2="26.85" y2="114.22" style="fill:none;stroke:#fff;stroke-miterlimit:10;stroke-width:0.27px"/><line x1="23.18" y1="115" x2="25.56" y2="112.79" style="fill:none;stroke:#fff;stroke-miterlimit:10;stroke-width:0.27px"/><line x1="21.82" y1="113.5" x2="24.26" y2="111.37" style="fill:none;stroke:#fff;stroke-miterlimit:10;stroke-width:0.27px"/><line x1="20.48" y1="112" x2="22.98" y2="109.94" style="fill:none;stroke:#fff;stroke-miterlimit:10;stroke-width:0.27px"/><line x1="19.27" y1="110.38" x2="21.83" y2="108.4" style="fill:none;stroke:#fff;stroke-miterlimit:10;stroke-width:0.27px"/><line x1="18.05" y1="108.76" x2="20.68" y2="106.86" style="fill:none;stroke:#fff;stroke-miterlimit:10;stroke-width:0.27px"/><line x1="16.84" y1="107.14" x2="19.53" y2="105.32" style="fill:none;stroke:#fff;stroke-miterlimit:10;stroke-width:0.27px"/><line x1="15.79" y1="105.41" x2="18.53" y2="103.68" style="fill:none;stroke:#fff;stroke-miterlimit:10;stroke-width:0.27px"/><line x1="14.74" y1="103.68" x2="17.53" y2="102.04" style="fill:none;stroke:#fff;stroke-miterlimit:10;stroke-width:0.27px"/><line x1="13.69" y1="101.95" x2="16.53" y2="100.4" style="fill:none;stroke:#fff;stroke-miterlimit:10;stroke-width:0.27px"/><line x1="12.79" y1="100.14" x2="15.68" y2="98.68" style="fill:none;stroke:#fff;stroke-miterlimit:10;stroke-width:0.27px"/><line x1="11.92" y1="98.32" x2="14.85" y2="96.94" style="fill:none;stroke:#fff;stroke-miterlimit:10;stroke-width:0.27px"/><line x1="11.04" y1="96.5" x2="14.01" y2="95.21" style="fill:none;stroke:#fff;stroke-miterlimit:10;stroke-width:0.27px"/><line x1="10.3" y1="94.62" x2="13.31" y2="93.43" style="fill:none;stroke:#fff;stroke-miterlimit:10;stroke-width:0.27px"/><line x1="9.61" y1="92.72" x2="12.65" y2="91.62" style="fill:none;stroke:#fff;stroke-miterlimit:10;stroke-width:0.27px"/><line x1="8.91" y1="90.82" x2="11.99" y2="89.82" style="fill:none;stroke:#fff;stroke-miterlimit:10;stroke-width:0.27px"/><line x1="8.33" y1="88.88" x2="11.45" y2="87.98" style="fill:none;stroke:#fff;stroke-miterlimit:10;stroke-width:0.27px"/><line x1="7.83" y1="86.92" x2="10.97" y2="86.12" style="fill:none;stroke:#fff;stroke-miterlimit:10;stroke-width:0.27px"/><line x1="7.33" y1="84.96" x2="10.49" y2="84.26" style="fill:none;stroke:#fff;stroke-miterlimit:10;stroke-width:0.27px"/><line x1="6.91" y1="82.99" x2="10.09" y2="82.38" style="fill:none;stroke:#fff;stroke-miterlimit:10;stroke-width:0.27px"/><line x1="6.6" y1="80.99" x2="9.8" y2="80.48" style="fill:none;stroke:#fff;stroke-miterlimit:10;stroke-width:0.27px"/><line x1="6.3" y1="78.99" x2="9.51" y2="78.58" style="fill:none;stroke:#fff;stroke-miterlimit:10;stroke-width:0.27px"/><line x1="6.04" y1="76.98" x2="9.26" y2="76.68" style="fill:none;stroke:#fff;stroke-miterlimit:10;stroke-width:0.27px"/><line x1="5.93" y1="74.97" x2="9.17" y2="74.76" style="fill:none;stroke:#fff;stroke-miterlimit:10;stroke-width:0.27px"/><line x1="5.83" y1="72.95" x2="9.07" y2="72.84" style="fill:none;stroke:#fff;stroke-miterlimit:10;stroke-width:0.27px"/><line x1="5.73" y1="70.93" x2="8.97" y2="70.92" style="fill:none;stroke:#fff;stroke-miterlimit:10;stroke-width:0.27px"/><line x1="5.82" y1="68.91" x2="9.05" y2="69" style="fill:none;stroke:#fff;stroke-miterlimit:10;stroke-width:0.27px"/><line x1="5.92" y1="66.89" x2="9.15" y2="67.08" style="fill:none;stroke:#fff;stroke-miterlimit:10;stroke-width:0.27px"/><line x1="6.02" y1="64.87" x2="9.25" y2="65.16" style="fill:none;stroke:#fff;stroke-miterlimit:10;stroke-width:0.27px"/><line x1="6.25" y1="62.86" x2="9.46" y2="63.25" style="fill:none;stroke:#fff;stroke-miterlimit:10;stroke-width:0.27px"/><line x1="6.55" y1="60.86" x2="9.75" y2="61.35" style="fill:none;stroke:#fff;stroke-miterlimit:10;stroke-width:0.27px"/><line x1="6.86" y1="58.86" x2="10.04" y2="59.45" style="fill:none;stroke:#fff;stroke-miterlimit:10;stroke-width:0.27px"/><line x1="7.24" y1="56.88" x2="10.41" y2="57.57" style="fill:none;stroke:#fff;stroke-miterlimit:10;stroke-width:0.27px"/><line x1="7.75" y1="54.92" x2="10.89" y2="55.71" style="fill:none;stroke:#fff;stroke-miterlimit:10;stroke-width:0.27px"/><line x1="8.25" y1="52.96" x2="11.37" y2="53.85" style="fill:none;stroke:#fff;stroke-miterlimit:10;stroke-width:0.27px"/><line x1="8.8" y1="51.02" x2="11.88" y2="52" style="fill:none;stroke:#fff;stroke-miterlimit:10;stroke-width:0.27px"/><line x1="9.49" y1="49.12" x2="12.54" y2="50.2" style="fill:none;stroke:#fff;stroke-miterlimit:10;stroke-width:0.27px"/><line x1="10.18" y1="47.22" x2="13.2" y2="48.39" style="fill:none;stroke:#fff;stroke-miterlimit:10;stroke-width:0.27px"/><line x1="10.89" y1="45.32" x2="13.87" y2="46.59" style="fill:none;stroke:#fff;stroke-miterlimit:10;stroke-width:0.27px"/><line x1="11.77" y1="43.5" x2="14.71" y2="44.86" style="fill:none;stroke:#fff;stroke-miterlimit:10;stroke-width:0.27px"/><line x1="12.65" y1="41.68" x2="15.54" y2="43.13" style="fill:none;stroke:#fff;stroke-miterlimit:10;stroke-width:0.27px"/><line x1="13.53" y1="39.86" x2="16.38" y2="41.4" style="fill:none;stroke:#fff;stroke-miterlimit:10;stroke-width:0.27px"/><line x1="14.57" y1="38.12" x2="17.37" y2="39.75" style="fill:none;stroke:#fff;stroke-miterlimit:10;stroke-width:0.27px"/><line x1="15.62" y1="36.39" x2="18.36" y2="38.11" style="fill:none;stroke:#fff;stroke-miterlimit:10;stroke-width:0.27px"/><line x1="16.67" y1="34.67" x2="19.36" y2="36.47" style="fill:none;stroke:#fff;stroke-miterlimit:10;stroke-width:0.27px"/><line x1="17.85" y1="33.03" x2="20.49" y2="34.91" style="fill:none;stroke:#fff;stroke-miterlimit:10;stroke-width:0.27px"/><line x1="19.06" y1="31.41" x2="21.64" y2="33.37" style="fill:none;stroke:#fff;stroke-miterlimit:10;stroke-width:0.27px"/><line x1="20.28" y1="29.79" x2="22.79" y2="31.83" style="fill:none;stroke:#fff;stroke-miterlimit:10;stroke-width:0.27px"/><line x1="21.6" y1="28.26" x2="24.05" y2="30.38" style="fill:none;stroke:#fff;stroke-miterlimit:10;stroke-width:0.27px"/><line x1="22.96" y1="26.77" x2="25.34" y2="28.96" style="fill:none;stroke:#fff;stroke-miterlimit:10;stroke-width:0.27px"/><line x1="24.32" y1="25.27" x2="26.63" y2="27.54" style="fill:none;stroke:#fff;stroke-miterlimit:10;stroke-width:0.27px"/><line x1="25.77" y1="23.87" x2="28.01" y2="26.2" style="fill:none;stroke:#fff;stroke-miterlimit:10;stroke-width:0.27px"/><line x1="27.26" y1="22.5" x2="29.43" y2="24.91" style="fill:none;stroke:#fff;stroke-miterlimit:10;stroke-width:0.27px"/><line x1="28.76" y1="21.15" x2="30.86" y2="23.62" style="fill:none;stroke:#fff;stroke-miterlimit:10;stroke-width:0.27px"/><line x1="30.33" y1="19.87" x2="32.35" y2="22.41" style="fill:none;stroke:#fff;stroke-miterlimit:10;stroke-width:0.27px"/><line x1="31.95" y1="18.66" x2="33.89" y2="21.26" style="fill:none;stroke:#fff;stroke-miterlimit:10;stroke-width:0.27px"/><line x1="33.57" y1="17.45" x2="35.42" y2="20.11" style="fill:none;stroke:#fff;stroke-miterlimit:10;stroke-width:0.27px"/><line x1="35.24" y1="16.32" x2="37.01" y2="19.03" style="fill:none;stroke:#fff;stroke-miterlimit:10;stroke-width:0.27px"/><line x1="36.97" y1="15.27" x2="38.66" y2="18.03" style="fill:none;stroke:#fff;stroke-miterlimit:10;stroke-width:0.27px"/><line x1="38.7" y1="14.22" x2="40.3" y2="17.03" style="fill:none;stroke:#fff;stroke-miterlimit:10;stroke-width:0.27px"/><line x1="40.46" y1="13.23" x2="41.97" y2="16.1" style="fill:none;stroke:#fff;stroke-miterlimit:10;stroke-width:0.27px"/><line x1="42.28" y1="12.36" x2="43.71" y2="15.27" style="fill:none;stroke:#fff;stroke-miterlimit:10;stroke-width:0.27px"/><line x1="44.11" y1="11.48" x2="45.44" y2="14.43" style="fill:none;stroke:#fff;stroke-miterlimit:10;stroke-width:0.27px"/><line x1="45.95" y1="10.65" x2="47.19" y2="13.64" style="fill:none;stroke:#fff;stroke-miterlimit:10;stroke-width:0.27px"/><line x1="47.85" y1="9.95" x2="48.99" y2="12.98" style="fill:none;stroke:#fff;stroke-miterlimit:10;stroke-width:0.27px"/><line x1="49.75" y1="9.26" x2="50.8" y2="12.32" style="fill:none;stroke:#fff;stroke-miterlimit:10;stroke-width:0.27px"/><line x1="51.66" y1="8.59" x2="52.61" y2="11.68" style="fill:none;stroke:#fff;stroke-miterlimit:10;stroke-width:0.27px"/><line x1="53.61" y1="8.08" x2="54.47" y2="11.21" style="fill:none;stroke:#fff;stroke-miterlimit:10;stroke-width:0.27px"/><line x1="55.57" y1="7.58" x2="56.33" y2="10.73" style="fill:none;stroke:#fff;stroke-miterlimit:10;stroke-width:0.27px"/><line x1="57.53" y1="7.08" x2="58.19" y2="10.25" style="fill:none;stroke:#fff;stroke-miterlimit:10;stroke-width:0.27px"/><line x1="59.53" y1="6.76" x2="60.09" y2="9.95" style="fill:none;stroke:#fff;stroke-miterlimit:10;stroke-width:0.27px"/><line x1="61.53" y1="6.45" x2="61.98" y2="9.66" style="fill:none;stroke:#fff;stroke-miterlimit:10;stroke-width:0.27px"/><line x1="63.53" y1="6.15" x2="63.88" y2="9.37" style="fill:none;stroke:#fff;stroke-miterlimit:10;stroke-width:0.27px"/><line x1="65.54" y1="5.99" x2="65.8" y2="9.22" style="fill:none;stroke:#fff;stroke-miterlimit:10;stroke-width:0.27px"/><line x1="67.56" y1="5.88" x2="67.72" y2="9.12" style="fill:none;stroke:#fff;stroke-miterlimit:10;stroke-width:0.27px"/><line x1="69.58" y1="5.78" x2="69.64" y2="9.02" style="fill:none;stroke:#fff;stroke-miterlimit:10;stroke-width:0.27px"/><line x1="109.3" y1="18.46" x2="107.37" y2="21.06" style="fill:none;stroke:#fff;stroke-miterlimit:10;stroke-width:0.27px"/><line x1="110.92" y1="19.67" x2="108.91" y2="22.21" style="fill:none;stroke:#fff;stroke-miterlimit:10;stroke-width:0.27px"/><line x1="112.5" y1="20.92" x2="110.42" y2="23.4" style="fill:none;stroke:#fff;stroke-miterlimit:10;stroke-width:0.27px"/><line x1="114" y1="22.28" x2="111.84" y2="24.69" style="fill:none;stroke:#fff;stroke-miterlimit:10;stroke-width:0.27px"/><line x1="115.5" y1="23.64" x2="113.27" y2="25.99" style="fill:none;stroke:#fff;stroke-miterlimit:10;stroke-width:0.27px"/><line x1="116.97" y1="25.02" x2="114.67" y2="27.3" style="fill:none;stroke:#fff;stroke-miterlimit:10;stroke-width:0.27px"/><line x1="118.33" y1="26.52" x2="115.96" y2="28.72" style="fill:none;stroke:#fff;stroke-miterlimit:10;stroke-width:0.27px"/><line x1="119.69" y1="28.01" x2="117.25" y2="30.15" style="fill:none;stroke:#fff;stroke-miterlimit:10;stroke-width:0.27px"/><line x1="121.04" y1="29.52" x2="118.53" y2="31.58" style="fill:none;stroke:#fff;stroke-miterlimit:10;stroke-width:0.27px"/><line x1="122.25" y1="31.14" x2="119.68" y2="33.12" style="fill:none;stroke:#fff;stroke-miterlimit:10;stroke-width:0.27px"/><line x1="123.46" y1="32.76" x2="120.84" y2="34.66" style="fill:none;stroke:#fff;stroke-miterlimit:10;stroke-width:0.27px"/><line x1="124.67" y1="34.38" x2="121.99" y2="36.19" style="fill:none;stroke:#fff;stroke-miterlimit:10;stroke-width:0.27px"/><line x1="125.72" y1="36.11" x2="122.99" y2="37.84" style="fill:none;stroke:#fff;stroke-miterlimit:10;stroke-width:0.27px"/><line x1="126.77" y1="37.83" x2="123.98" y2="39.48" style="fill:none;stroke:#fff;stroke-miterlimit:10;stroke-width:0.27px"/><line x1="127.82" y1="39.56" x2="124.98" y2="41.12" style="fill:none;stroke:#fff;stroke-miterlimit:10;stroke-width:0.27px"/><line x1="128.72" y1="41.37" x2="125.83" y2="42.84" style="fill:none;stroke:#fff;stroke-miterlimit:10;stroke-width:0.27px"/><line x1="129.6" y1="43.2" x2="126.67" y2="44.57" style="fill:none;stroke:#fff;stroke-miterlimit:10;stroke-width:0.27px"/><line x1="130.48" y1="45.02" x2="127.5" y2="46.3" style="fill:none;stroke:#fff;stroke-miterlimit:10;stroke-width:0.27px"/><line x1="131.21" y1="46.9" x2="128.2" y2="48.09" style="fill:none;stroke:#fff;stroke-miterlimit:10;stroke-width:0.27px"/><line x1="131.91" y1="48.8" x2="128.86" y2="49.89" style="fill:none;stroke:#fff;stroke-miterlimit:10;stroke-width:0.27px"/><line x1="132.6" y1="50.7" x2="129.52" y2="51.7" style="fill:none;stroke:#fff;stroke-miterlimit:10;stroke-width:0.27px"/><line x1="133.18" y1="52.64" x2="130.07" y2="53.54" style="fill:none;stroke:#fff;stroke-miterlimit:10;stroke-width:0.27px"/><line x1="133.69" y1="54.59" x2="130.55" y2="55.4" style="fill:none;stroke:#fff;stroke-miterlimit:10;stroke-width:0.27px"/><line x1="134.19" y1="56.55" x2="131.03" y2="57.26" style="fill:none;stroke:#fff;stroke-miterlimit:10;stroke-width:0.27px"/><line x1="134.61" y1="58.53" x2="131.42" y2="59.14" style="fill:none;stroke:#fff;stroke-miterlimit:10;stroke-width:0.27px"/><line x1="134.91" y1="60.53" x2="131.71" y2="61.04" style="fill:none;stroke:#fff;stroke-miterlimit:10;stroke-width:0.27px"/><line x1="135.22" y1="62.53" x2="132" y2="62.94" style="fill:none;stroke:#fff;stroke-miterlimit:10;stroke-width:0.27px"/><line x1="135.48" y1="64.53" x2="132.25" y2="64.84" style="fill:none;stroke:#fff;stroke-miterlimit:10;stroke-width:0.27px"/><line x1="135.58" y1="66.55" x2="132.35" y2="66.76" style="fill:none;stroke:#fff;stroke-miterlimit:10;stroke-width:0.27px"/><line x1="135.68" y1="68.57" x2="132.45" y2="68.68" style="fill:none;stroke:#fff;stroke-miterlimit:10;stroke-width:0.27px"/><line x1="135.78" y1="70.59" x2="132.54" y2="70.6" style="fill:none;stroke:#fff;stroke-miterlimit:10;stroke-width:0.27px"/></g><g style="opacity:0.8"><line x1="71.6" y1="5.77" x2="71.56" y2="9" style="fill:none;stroke:#fff;stroke-miterlimit:10;stroke-width:0.27px"/><line x1="73.62" y1="5.87" x2="73.48" y2="9.1" style="fill:none;stroke:#fff;stroke-miterlimit:10;stroke-width:0.27px"/><line x1="75.64" y1="5.97" x2="75.4" y2="9.2" style="fill:none;stroke:#fff;stroke-miterlimit:10;stroke-width:0.27px"/><line x1="77.65" y1="6.1" x2="77.31" y2="9.32" style="fill:none;stroke:#fff;stroke-miterlimit:10;stroke-width:0.27px"/><line x1="79.65" y1="6.4" x2="79.21" y2="9.61" style="fill:none;stroke:#fff;stroke-miterlimit:10;stroke-width:0.27px"/><line x1="81.65" y1="6.71" x2="81.11" y2="9.9" style="fill:none;stroke:#fff;stroke-miterlimit:10;stroke-width:0.27px"/><line x1="83.65" y1="7.01" x2="83.01" y2="10.19" style="fill:none;stroke:#fff;stroke-miterlimit:10;stroke-width:0.27px"/><line x1="85.62" y1="7.49" x2="84.88" y2="10.65" style="fill:none;stroke:#fff;stroke-miterlimit:10;stroke-width:0.27px"/><line x1="87.57" y1="8" x2="86.74" y2="11.13" style="fill:none;stroke:#fff;stroke-miterlimit:10;stroke-width:0.27px"/><line x1="89.53" y1="8.5" x2="88.6" y2="11.6" style="fill:none;stroke:#fff;stroke-miterlimit:10;stroke-width:0.27px"/><line x1="91.45" y1="9.14" x2="90.42" y2="12.21" style="fill:none;stroke:#fff;stroke-miterlimit:10;stroke-width:0.27px"/><line x1="93.35" y1="9.84" x2="92.22" y2="12.87" style="fill:none;stroke:#fff;stroke-miterlimit:10;stroke-width:0.27px"/><line x1="95.25" y1="10.53" x2="94.03" y2="13.53" style="fill:none;stroke:#fff;stroke-miterlimit:10;stroke-width:0.27px"/><line x1="97.1" y1="11.33" x2="95.79" y2="14.29" style="fill:none;stroke:#fff;stroke-miterlimit:10;stroke-width:0.27px"/><line x1="98.93" y1="12.21" x2="97.52" y2="15.13" style="fill:none;stroke:#fff;stroke-miterlimit:10;stroke-width:0.27px"/><line x1="100.75" y1="13.09" x2="99.25" y2="15.96" style="fill:none;stroke:#fff;stroke-miterlimit:10;stroke-width:0.27px"/><line x1="102.53" y1="14.04" x2="100.94" y2="16.87" style="fill:none;stroke:#fff;stroke-miterlimit:10;stroke-width:0.27px"/><line x1="104.26" y1="15.09" x2="102.59" y2="17.87" style="fill:none;stroke:#fff;stroke-miterlimit:10;stroke-width:0.27px"/><line x1="105.99" y1="16.14" x2="104.23" y2="18.86" style="fill:none;stroke:#fff;stroke-miterlimit:10;stroke-width:0.27px"/><line x1="107.68" y1="17.25" x2="105.84" y2="19.91" style="fill:none;stroke:#fff;stroke-miterlimit:10;stroke-width:0.27px"/></g></svg>